<?xml version="1.0" encoding="UTF-8"?>
<svg xmlns="http://www.w3.org/2000/svg" viewBox="0 0 1200 630" font-family="-apple-system,'Helvetica Neue',sans-serif">
  <defs>
    <linearGradient id="sky" x1="0" y1="0" x2="0" y2="1">
      <stop offset="0" stop-color="#ee2536"/>
      <stop offset="0.55" stop-color="#f97356"/>
      <stop offset="1" stop-color="#fde2c4"/>
    </linearGradient>
    <linearGradient id="water" x1="0" y1="0" x2="0" y2="1">
      <stop offset="0" stop-color="#1e3a8a"/>
      <stop offset="1" stop-color="#0c1f4a"/>
    </linearGradient>
    <linearGradient id="city" x1="0" y1="0" x2="0" y2="1">
      <stop offset="0" stop-color="#1e293b"/>
      <stop offset="1" stop-color="#0f172a"/>
    </linearGradient>
    <radialGradient id="moon" cx="0.5" cy="0.5">
      <stop offset="0" stop-color="#fff" stop-opacity="1"/>
      <stop offset="1" stop-color="#fff" stop-opacity="0"/>
    </radialGradient>
  </defs>

  <rect width="1200" height="630" fill="url(#sky)"/>

  <circle cx="1020" cy="120" r="60" fill="#fff" opacity="0.92"/>
  <circle cx="1020" cy="120" r="120" fill="url(#moon)" opacity="0.4"/>

  <g fill="#1f2a44" opacity="0.55">
    <rect x="0" y="380" width="60" height="80"/>
    <rect x="55" y="350" width="40" height="110"/>
    <rect x="92" y="370" width="50" height="90"/>
    <rect x="140" y="330" width="45" height="130"/>
    <rect x="180" y="360" width="55" height="100"/>
    <rect x="235" y="320" width="35" height="140"/>
    <rect x="268" y="340" width="60" height="120"/>
    <rect x="325" y="300" width="40" height="160"/>
    <rect x="900" y="370" width="50" height="90"/>
    <rect x="945" y="340" width="60" height="120"/>
    <rect x="1000" y="360" width="45" height="100"/>
    <rect x="1043" y="320" width="55" height="140"/>
    <rect x="1095" y="350" width="40" height="110"/>
    <rect x="1130" y="330" width="60" height="130"/>
  </g>

  <g transform="translate(420,290)" opacity="0.85">
    <rect x="-4" y="0" width="8" height="180" fill="#1a2c1f"/>
    <ellipse cx="0" cy="0" rx="40" ry="48" fill="#1a4d2e"/>
    <ellipse cx="-22" cy="14" rx="20" ry="26" fill="#225b39"/>
    <ellipse cx="22" cy="14" rx="20" ry="26" fill="#225b39"/>
  </g>
  <g transform="translate(470,300)" opacity="0.85">
    <rect x="-3" y="0" width="6" height="170" fill="#1a2c1f"/>
    <ellipse cx="0" cy="0" rx="32" ry="40" fill="#1a4d2e"/>
    <ellipse cx="-18" cy="12" rx="16" ry="22" fill="#225b39"/>
  </g>

  <g transform="translate(560,180)">
    <rect x="0" y="40" width="58" height="280" fill="url(#city)"/>
    <rect x="100" y="20" width="58" height="300" fill="url(#city)"/>
    <rect x="200" y="40" width="58" height="280" fill="url(#city)"/>
    <path d="M -14,40 Q 130,-8 272,40 L 272,68 Q 130,20 -14,68 Z" fill="#0b1224"/>
    <g fill="#fcd34d" opacity="0.85">
      <rect x="10" y="100" width="3" height="6"/>
      <rect x="18" y="130" width="3" height="6"/>
      <rect x="30" y="170" width="3" height="6"/>
      <rect x="42" y="220" width="3" height="6"/>
      <rect x="110" y="90" width="3" height="6"/>
      <rect x="124" y="140" width="3" height="6"/>
      <rect x="138" y="200" width="3" height="6"/>
      <rect x="148" y="260" width="3" height="6"/>
      <rect x="210" y="110" width="3" height="6"/>
      <rect x="222" y="160" width="3" height="6"/>
      <rect x="234" y="210" width="3" height="6"/>
      <rect x="248" y="270" width="3" height="6"/>
    </g>
  </g>

  <rect y="460" width="1200" height="170" fill="url(#water)"/>
  <g stroke="#3b82f6" stroke-opacity="0.18" stroke-width="2">
    <line x1="100" y1="490" x2="280" y2="490"/>
    <line x1="320" y1="510" x2="460" y2="510"/>
    <line x1="600" y1="500" x2="800" y2="500"/>
    <line x1="60" y1="540" x2="240" y2="540"/>
    <line x1="700" y1="570" x2="900" y2="570"/>
    <line x1="940" y1="530" x2="1100" y2="530"/>
  </g>

  <g transform="translate(60,72)">
    <rect width="320" height="44" rx="22" fill="#fff" opacity="0.95"/>
    <text x="160" y="29" text-anchor="middle" font-size="16" font-weight="700" fill="#0f172a">
      Tavily × Amazon Bedrock
    </text>
  </g>

  <!-- Title -->
  <text x="60" y="200" font-size="64" font-weight="800" fill="#fff" letter-spacing="-1">
    Let AI prep
  </text>
  <text x="60" y="276" font-size="64" font-weight="800" fill="#fff" letter-spacing="-1">
    your Singapore trip
  </text>

  <!-- Subtitle -->
  <text x="60" y="332" font-size="22" font-weight="600" fill="#fff" opacity="0.92">
    Streaming Bedrock's extended thinking over SSE,
  </text>
  <text x="60" y="362" font-size="22" font-weight="600" fill="#fff" opacity="0.92">
    on top of Tavily Search.
  </text>

  <rect y="600" width="1200" height="30" fill="#0c1f4a" opacity="0.85"/>
  <text x="1140" y="620" text-anchor="end" font-size="14" fill="#fff" opacity="0.92">
    sg-research-app.vercel.app  ·  github.com/yama3133/sg-research-app
  </text>
  <text x="60" y="620" font-size="14" font-weight="700" fill="#fff" opacity="0.92">
    🇸🇬 SG Research
  </text>
</svg>
